/* XPM */
static char * door_xpm[] = {
"64 64 7 1",
"  c #6E4A2E",
"W c #8B5E3C",
"D c #4E3422",
"M c #B0B7BF",
"S c #8A9097",
"B c #2B2B2B",
"H c #000000",
"DHDDDDDDDDDDDDDDDDDDDDDDDDDDDDDDDDDDDDDDDDDDDDDDDDDDDDDDDDDDDDHD",
"HHHHHHHHHHHHHHHHHHHHHHHHHHHHHHHHHHHHHHHHHHHHHHHHHHHHHHHHHHHHHHHH",
"DH     DDWWWWWWDD      DDWWWWWWDD      DDWWWWWWDD      DDWWWWWHD",
"DH     DDWWWWWWDD      DDWWWWWWDD      DDWWWWWWDD      DDWWWWWHD",
"DH     DDWWWWWWDD      DDWWWWWWDD      DDWWWWWWDD      DDWWWWWHD",
"DH     DDWWWWWWDD      DDWWWWWWDD      DDWWWWWWDD      DDWWWWWHD",
"DH     DDWWWWWWDD      DDWWWWWWDD      DDWWWWWWDD      DDWWWWWHD",
"DH     DDWWWWWWDD      DDWWWWWWDD      DDWWWWWWDD      DDWWWWWHD",
"DH     DDWWWWWWDD      DDWWWWWWDD      DDWWWWWWDD      DDWWWWWHD",
"DH     DDWWWWWWDD      DDWWWWWWDD      DDWWWWWWDD      DDWWWWWHD",
"DH     DDWWWWWWDD      DDWWWWWWDD      DDWWWWWWDD      DDWWWWWHD",
"DH     DDWWWWWWDD      DDWWWWWWDD      DDWWWWWWDD      DDWWWWWHD",
"DH     DDWWWWWWDD      DDWWWWWWDD      DDWWWWWWDD      DDWWWWWHD",
"DH     DDWWWWWWDD      DDWWWWWWDD      DDWWWWWWDD      DDWWWWWHD",
"DH     DDWWWWWWDD      DDWWWWWWDD      DDWWWWWWDD      DDWWWWWHD",
"DH     DDWWWWWWDD      DDWWWWWWDD      DDWWWWWWDD      DDWWWWWHD",
"DH     DDWWWWWWDD      DDWWWWWWDD      DDWWWWWWDD      DDWWWWWHD",
"DH     DDWWWWWWDD      DDWWWWWWDD      DDWWWWWWDD      DDWWWWWHD",
"DH     DDWWWWWWDD      DDWWWWWWDD      DDWWWWWWDD      DDWWWWWHD",
"DH     DDWWWWWWDD      DDWWWWWWDD      DDWWWWWWDD      DDWWWWWHD",
"DHSSBSSSSSSSBSSSSSSSBSSSSSSSBSSSSSSSBSSSSSSSBSSSSSSSBSSSSSSSBSHD",
"DHMMBMMMMMMMBMMMMMMMBMMMMMMMBMMMMMMMBMMMMMMMBMMMMMMMBMMMMMMMBMHD",
"DHSSBSSSSSSSBSSSSSSSBSSSSSSSBSSSSSSSBSSSSSSSBSSSSSSSBSSSSSSSBSHD",
"DH     DDWWWWWWDD      DDWWWWWWDD      DDWWWWWWDD      DDWWWWWHD",
"DH     DDWWWWWWDD      DDWWWWWWDD      DDWWWWWWDD      DDWWWWWHD",
"DH     DDWWWWWWDD      DDWWWWWWDD      DDWWWWWWDD      DDWWWWWHD",
"DH     DDWWWWWWDD      DDWWWWWWDD      DDWWWWWWDD      DDWWWWWHD",
"DH     DDWWWWWWDD      DDWWWWWWDD      DDWWWWWWDD      DDWWWWWHD",
"DH     DDWWWWWWDD      DDWWWWWWDD      DDWWWWWWDD      DDWWWWWHD",
"DH     DDWWWWWWDD      DDWWWWWWDD      DDWWWWWWDD      DDWWWWWHD",
"DH     DDWWWWWWDD      DDWWWWWWDD      DDWWWWWWDD      DDWWWWWHD",
"DH     DDWWWWWWDD      DDWWWWWWDD      DDWWWWWWDD      DDWWWWWHD",
"DH     DDWWWWWWDD      DDWWWWWWDD      DDWWWWWWDD      DDWWWWWHD",
"DH     DDWWWWWWDD      DDWWWWWWDD      DDWWWWWWDD      DDWWWWWHD",
"DH     DDWWWWWWDD      DDWWWWWWDD      DDWWWWWWDD      DDWWWWWHD",
"DH     DDWWWWWWDD      DDWWWWWWDD      DDWWWWWWDD      DDWWWWWHD",
"DH     DDWWWWWWDD      DDWWWWWWDD      DDWWWWWWDD      DDWWWWWHD",
"DH     DDWWWWWWDD      DDWWWWWWDD      DDWWWWWWDD      DDWWWWWHD",
"DH     DDWWWWWWDD      DDWWWWWWDD      DDWWWWWWDD      DDWWWWWHD",
"DH     DDWWWWWWDD      DDWWWWWWDD      DDWWWWWWDD      DDWWWWWHD",
"DH     DDWWWWWWDD      DDWWWWWWDD      DDWWWWWWDD      DDWWWWWHD",
"DH     DDWWWWWWDD      DDWWWWWWDD      DDWWWWWWDD      DDWWWWWHD",
"DHSSBSSSSSSSBSSSSSSSBSSSSSSSBSSSSSSSBSSSSSSSBSSSSSSSBSSSSSSSBSHD",
"DHMMBMMMMMMMBMMMMMMMBMMMMMMMBMMMMMMMBMMMMMMMBMMMMMMMBMMMMMMMBMHD",
"DHSSBSSSSSSSBSSSSSSSBSSSSSSSBSSSSSSSBSSSSSSSBSSSSSSSBSSSSSSSBSHD",
"DH     DDWWWWWWDD      DDWWWWWWDD      DDWWWWWWDD      DDWWWWWHD",
"DH     DDWWWWWWDD      DDWWWWWWDD      DDWWWWWWDD      DDWWWWWHD",
"DH     DDWWWWWWDD      DDWWWWWWDD      DDWWWWWWDD      DDWWWWWHD",
"DH     DDWWWWWWDD      DDWWWWWWDD      DDWWWWWWDD      DDWWWWWHD",
"DH     DDWWWWWWDD      DDWWWWWWDD      DDWWWWWWDD      DDWWWWWHD",
"DH     DDWWWWWWDD      DDWWWWWWDD      DDWWWWWWDD      DDWWWWWHD",
"DH     DDWWWWWWDD      DDWWWWWWDD      DDWWWWWWDD      DDWWWWWHD",
"DH     DDWWWWWWDD      DDWWWWWWDD      DDWWWWWWDD      DDWWWWWHD",
"DH     DDWWWWWWDD      DDWWWWWWDD      DDWWWWWWDD      DDWWWWWHD",
"DH     DDWWWWWWDD      DDWWWWWWDD      DDWWWWWWDD      DDWWWWWHD",
"DH     DDWWWWWWDD      DDWWWWWWDD      DDWWWWWWDD      DDWWWWWHD",
"DH     DDWWWWWWDD      DDWWWWWWDD      DDWWWWWWDD      DDWWWWWHD",
"DH     DDWWWWWWDD      DDWWWWWWDD      DDWWWWWWDD      DDWWWWWHD",
"DH     DDWWWWWWDD      DDWWWWWWDD      DDWWWWWWDD      DDWWWWWHD",
"DH     DDWWWWWWDD      DDWWWWWWDD      DDWWWWWWDD      DDWWWWWHD",
"DH     DDWWWWWWDD      DDWWWWWWDD      DDWWWWWWDD      DDWWWWWHD",
"DH     DDWWWWWWDD      DDWWWWWWDD      DDWWWWWWDD      DDWWWWWHD",
"HHHHHHHHHHHHHHHHHHHHHHHHHHHHHHHHHHHHHHHHHHHHHHHHHHHHHHHHHHHHHHHH",
"DHDDDDDDDDDDDDDDDDDDDDDDDDDDDDDDDDDDDDDDDDDDDDDDDDDDDDDDDDDDDDHD"
};
