/* XPM */
static char * enemy_0_xpm[] = {
"32 32 7 1",
"  c #FF00FF",
"R c #E53935",
"O c #8B0000",
"W c #FFFFFF",
"B c #000000",
"M c #5D4037",
"Y c #FFFF00",
"                                ",
"                                ",
"                                ",
"                                ",
"                O               ",
"            OOOOROOOO           ",
"          OORRRRRRRRROO         ",
"         ORRRRRRRRRRRRRO        ",
"        ORRRRRRRRRRRRRRRO       ",
"       ORRRRRRRRRRRRRRRRRO      ",
"      ORRRRRRRRRRRRRRRRRRRO     ",
"      ORRRRRRRRRRRRRRRRRRRO     ",
"     ORRRRWWWRRRRRRRWWWRRRRO    ",
"     ORRRRWWBRRRRRRRWWBRRRRO    ",
"     ORRRRWWWRRRRRRRWWWRRRRO    ",
"     ORRRRRRRRRRRRRRRRRRRRRO    ",
"    ORRRRRRRRRRRRRRRRRRRRRRRO   ",
"     ORRRRRRRRRRRRRRRRRRRRRO    ",
"     ORRRRRRRRRRRRRRRRRRRRRO    ",
"     ORRRRRRRRRRRRRRRRRRRRRO    ",
"     ORRRRRRRRRRRRRRRRRRRRRO    ",
"      ORRRRRMMMRRRMMMRRRRRO     ",
"      ORRRRRRRRRRRRRRRRRRRO     ",
"       ORRRRRRRRRRRRRRRRRO      ",
"        ORRRRRRRRRRRRRRRO       ",
"         ORRRRRRRRRRRRRO        ",
"          OORRRRRRRRROO         ",
"            OOOOROOOO           ",
"                O               ",
"                                ",
"                                ",
"                                "
};
